# File produced by Open Asset Import Library (http://www.assimp.sf.net)
# (assimp v3.1.113183908)

mtllib Bedsheet.mtl

# vertex positions
v -3.173108 1.540592 4.852856
v 3.173108 1.540592 4.852856
v 3.173108 2.059577 4.852856
v -3.173108 2.059577 4.852856
v 3.173108 2.059577 -4.847898
v -3.173108 2.059577 -4.847898
v 3.173108 1.540592 -4.847898
v -3.173108 1.540592 -4.847898

# UV coordinates
vt 0.348924 0.391185
vt 0.567093 0.391185
vt 0.567093 0.409027
vt 0.348924 0.409027
vt 0.567093 0.742517
vt 0.348924 0.742517
vt 0.348934 0.039857
vt 0.567110 0.039855
vt 0.567109 0.057700
vt 0.348934 0.057694
vt 0.900871 0.057695
vt 0.900871 0.039853
vt 0.015722 0.057695
vt 0.015722 0.039853

# vertex normals
vn 0.000000 0.000000 1.000000
vn 0.000000 1.000000 0.000000
vn 0.000000 0.000000 -1.000000
vn 0.000000 -1.000000 0.000000
vn 1.000000 0.000000 0.000000
vn -1.000000 0.000000 0.000000

# Mesh
g bedsheet
usemtl initialShadingGroup
f 4/4/1 1/1/1 2/2/1
f 2/2/1 3/3/1 4/4/1
f 6/6/2 4/4/2 3/3/2
f 3/3/2 5/5/2 6/6/2
f 8/10/3 6/7/3 5/8/3
f 5/8/3 7/9/3 8/10/3
f 1/1/4 8/10/4 7/9/4
f 7/9/4 2/2/4 1/1/4
f 3/12/5 2/11/5 7/9/5
f 7/9/5 5/8/5 3/12/5
f 6/7/6 8/10/6 1/13/6
f 1/13/6 4/14/6 6/7/6
